<svg version="1.1" id="Layer_1" xmlns="http://www.w3.org/2000/svg" xmlns:xlink="http://www.w3.org/1999/xlink" x="0px" y="0px"
	 width="100%" viewBox="0 0 1024 1024" enable-background="new 0 0 1024 1024" xml:space="preserve">
<path fill="#FFFFFF" opacity="1.000000" stroke="none" 
	d="
M539.000000,1025.000000 
	C360.833344,1025.000000 183.166656,1024.986328 5.500057,1025.093872 
	C1.750702,1025.096069 0.905801,1024.249146 0.906913,1020.500000 
	C1.007246,682.166687 1.007246,343.833344 0.906913,5.500028 
	C0.905801,1.750903 1.750902,0.905800 5.500028,0.906912 
	C343.833344,1.007255 682.166687,1.007255 1020.500000,0.906912 
	C1024.249146,0.905800 1025.094360,1.750902 1025.093262,5.500027 
	C1024.992920,343.833344 1024.992798,682.166687 1025.093140,1020.500000 
	C1025.094238,1024.249146 1024.249390,1025.096436 1020.499939,1025.093872 
	C860.166687,1024.984741 699.833313,1025.000000 539.000000,1025.000000 
z"/>
<path fill="#000000" opacity="1.000000" stroke="none" 
	d="
M56.999313,526.000000 
	C56.999317,423.170593 56.990654,320.841156 57.005787,218.511749 
	C57.009315,194.667236 71.383865,176.217072 94.302254,170.554367 
	C98.699883,169.467773 103.211327,169.396545 107.704369,169.396301 
	C362.361267,169.382309 617.018250,169.476334 871.674988,169.250244 
	C899.169922,169.225845 917.141479,187.076797 921.467468,206.945618 
	C922.365112,211.068436 922.196167,215.233871 922.218506,219.385422 
	C922.286560,232.051239 922.436035,244.722244 922.134949,257.381256 
	C922.032898,261.671234 923.417908,262.586090 927.437012,262.483887 
	C936.258606,262.259552 945.123230,262.160675 953.918457,262.765228 
	C978.058350,264.424469 997.045288,284.515106 997.069519,308.705841 
	C997.189087,428.201019 997.145508,547.696350 997.157349,667.191650 
	C997.160645,700.357056 996.467102,733.541382 997.378662,766.681702 
	C998.085083,792.364868 977.034058,816.110168 947.814697,816.092102 
	C692.324585,815.933899 436.834290,816.012085 181.344070,815.984436 
	C152.661072,815.981323 132.010406,795.145630 131.998459,766.453125 
	C131.992966,753.286987 131.870621,740.118713 132.084854,726.956055 
	C132.139725,723.584229 131.085159,722.956482 127.938377,722.911377 
	C117.627419,722.763550 107.266960,723.931519 97.007874,722.179443 
	C73.665077,718.192993 57.065536,698.712219 57.025223,674.990967 
	C56.941101,625.494141 56.999477,575.997009 56.999313,526.000000 
z"/>
<path fill="#FEFEFE" opacity="1.000000" stroke="none" 
	d="
M136.000519,663.000610 
	C130.334976,663.000610 125.165504,662.883484 120.005417,663.052673 
	C117.623001,663.130676 116.608986,662.440552 116.960457,660.008301 
	C117.078400,659.192139 116.978882,658.344666 116.978882,657.511475 
	C116.978867,516.706299 117.016472,375.901062 116.833687,235.096146 
	C116.826775,229.773392 118.425560,229.062683 123.161659,229.064911 
	C367.612732,229.180252 612.063843,229.183487 856.514893,229.047501 
	C861.517395,229.044724 862.783936,230.154053 862.778198,235.254135 
	C862.620361,375.892517 862.624451,516.531067 862.769043,657.169495 
	C862.773926,661.956421 861.703308,663.122559 856.856262,663.119812 
	C616.737671,662.983826 376.619049,663.000610 136.000519,663.000610 
z"/>
<path fill="#FCFCFC" opacity="1.000000" stroke="none" 
	d="
M922.636780,321.859833 
	C927.602051,322.215027 933.959106,320.518738 936.469910,322.891815 
	C939.660645,325.907501 937.502930,332.334320 937.505066,337.272858 
	C937.563293,474.910400 937.523682,612.547974 937.669434,750.185425 
	C937.674500,754.981445 936.584839,756.126038 931.750793,756.123352 
	C686.969299,755.987976 442.187683,755.989563 197.406174,756.116638 
	C192.794556,756.119019 191.618881,754.915161 191.829758,750.450378 
	C192.206711,742.469910 192.068314,734.455444 191.866135,726.462280 
	C191.792709,723.559448 192.735352,722.586121 195.494171,722.973755 
	C196.474594,723.111450 197.490646,722.995667 198.490433,722.995667 
	C422.942963,722.995667 647.395508,722.998596 871.848022,722.991638 
	C897.087708,722.990845 915.965088,708.580688 921.473328,685.158203 
	C922.514343,680.731567 922.216309,676.209290 922.217163,671.724304 
	C922.239014,557.581787 922.234375,443.439240 922.236023,329.296692 
	C922.236084,327.297241 922.257812,325.297760 922.295105,322.856873 
	C922.320557,322.148895 922.320312,321.882385 922.636780,321.859833 
z"/>
<path fill="#404040" opacity="1.000000" stroke="none" 
	d="
M922.926392,321.628906 
	C922.953491,322.103760 922.730591,322.449310 922.525696,322.432373 
	C922.320801,303.323608 922.320801,284.231781 922.320801,265.139954 
	C922.513672,265.139008 922.706482,265.138031 922.899353,265.137085 
	C922.899353,283.809387 922.899353,302.481720 922.926392,321.628906 
z"/>
<path fill="#010101" opacity="1.000000" stroke="none" 
	d="
M432.936157,276.927124 
	C448.874084,284.312225 460.353485,296.191010 469.983795,310.023499 
	C484.777557,331.272583 494.324768,354.894135 500.990479,379.777832 
	C501.364990,381.175903 501.805084,382.556427 502.334839,384.352631 
	C509.743927,377.888794 516.929871,371.730316 524.595093,366.174713 
	C551.596985,346.604553 581.196472,332.721497 614.037292,326.460419 
	C632.577698,322.925720 651.128418,322.543640 668.794678,330.988220 
	C678.662109,335.704865 686.265076,342.961670 692.370178,351.965576 
	C693.964661,354.317169 694.011108,356.232056 692.941956,358.823669 
	C674.449463,403.651154 644.145569,437.130981 599.484924,457.137115 
	C575.454834,467.901611 552.291931,480.192841 532.397949,497.858124 
	C508.027008,519.498901 489.626801,545.591919 475.240570,574.616394 
	C473.150024,578.834106 471.478668,579.578918 467.926758,576.655701 
	C465.136108,574.359009 462.107422,570.527832 459.276886,570.608826 
	C456.361755,570.692139 453.609314,574.753784 450.697845,576.958740 
	C435.352386,588.580627 418.483765,594.494385 398.933807,591.381226 
	C395.154999,590.779480 394.094238,588.799744 393.033691,585.865173 
	C373.574249,532.019226 372.402069,478.292480 393.417297,424.485321 
	C400.741730,405.731812 406.522736,386.507904 408.225739,366.225555 
	C410.740143,336.279510 405.766846,307.538147 394.741974,279.789764 
	C392.883118,275.111176 394.108459,273.928162 398.359100,273.149170 
	C410.153259,270.987610 421.539978,272.101318 432.936157,276.927124 
z"/>
<path fill="#010101" opacity="1.000000" stroke="none" 
	d="
M282.339264,518.608154 
	C266.395782,479.857300 264.381104,440.137207 270.712433,399.581299 
	C275.575989,368.427368 286.469055,339.567535 303.729919,313.215485 
	C314.468689,296.820709 327.506012,282.771118 346.465179,275.620544 
	C356.526367,271.825897 366.883881,271.262238 377.430634,273.063721 
	C380.731598,273.627563 382.820862,275.036133 384.244171,278.483246 
	C396.608826,308.429382 402.066956,339.329315 398.103485,371.689514 
	C395.860779,390.000427 389.805450,407.264557 383.530640,424.419495 
	C372.534485,454.482330 366.775604,485.271118 368.948639,517.374268 
	C370.519562,540.582642 375.072601,563.171204 382.942474,585.044739 
	C384.395081,589.082092 383.598907,590.355042 379.493469,591.106750 
	C356.937378,595.237000 337.884247,587.973572 320.985779,573.518005 
	C303.543976,558.597778 291.591644,539.780334 282.339264,518.608154 
z"/>
<path fill="#010101" opacity="1.000000" stroke="none" 
	d="
M538.909912,504.896606 
	C557.982605,487.821686 579.929260,476.076782 602.787964,465.955231 
	C634.778625,451.790131 660.895081,430.643036 680.622925,401.713593 
	C688.220703,390.572052 694.743774,378.804535 699.883118,366.335175 
	C701.211853,363.111267 702.311340,363.078217 704.986328,364.800110 
	C724.059998,377.077972 731.952881,395.319000 732.874084,417.148895 
	C733.841248,440.070129 727.692627,461.619385 718.980591,482.462189 
	C696.525940,536.183411 660.447205,577.622314 607.548523,603.110535 
	C581.764709,615.533936 554.384827,621.340698 525.655823,617.093201 
	C507.661957,614.432922 492.781403,605.938171 481.820221,591.062683 
	C480.057922,588.671021 479.684235,586.727661 481.023407,583.893372 
	C495.181427,553.929260 513.610535,527.123352 538.909912,504.896606 
z"/>
</svg>