<svg id="visual" viewBox="0 0 540 960" width="540" height="960" xmlns="http://www.w3.org/2000/svg" xmlns:xlink="http://www.w3.org/1999/xlink" version="1.1"><path d="M307 960L331.3 933.3C355.7 906.7 404.3 853.3 425 800C445.7 746.7 438.3 693.3 429.3 640C420.3 586.7 409.7 533.3 407 480C404.3 426.7 409.7 373.3 408.7 320C407.7 266.7 400.3 213.3 404.8 160C409.3 106.7 425.7 53.3 433.8 26.7L442 0L540 0L540 26.7C540 53.3 540 106.7 540 160C540 213.3 540 266.7 540 320C540 373.3 540 426.7 540 480C540 533.3 540 586.7 540 640C540 693.3 540 746.7 540 800C540 853.3 540 906.7 540 933.3L540 960Z" fill="#701c06"></path><path d="M253 960L271.8 933.3C290.7 906.7 328.3 853.3 341.8 800C355.3 746.7 344.7 693.3 342.8 640C341 586.7 348 533.3 350.7 480C353.3 426.7 351.7 373.3 342.7 320C333.7 266.7 317.3 213.3 322.7 160C328 106.7 355 53.3 368.5 26.7L382 0L443 0L434.8 26.7C426.7 53.3 410.3 106.7 405.8 160C401.3 213.3 408.7 266.7 409.7 320C410.7 373.3 405.3 426.7 408 480C410.7 533.3 421.3 586.7 430.3 640C439.3 693.3 446.7 746.7 426 800C405.3 853.3 356.7 906.7 332.3 933.3L308 960Z" fill="#863316"></path><path d="M134 960L153.8 933.3C173.7 906.7 213.3 853.3 228.7 800C244 746.7 235 693.3 229.5 640C224 586.7 222 533.3 227.3 480C232.7 426.7 245.3 373.3 240 320C234.7 266.7 211.3 213.3 209.5 160C207.7 106.7 227.3 53.3 237.2 26.7L247 0L383 0L369.5 26.7C356 53.3 329 106.7 323.7 160C318.3 213.3 334.7 266.7 343.7 320C352.7 373.3 354.3 426.7 351.7 480C349 533.3 342 586.7 343.8 640C345.7 693.3 356.3 746.7 342.8 800C329.3 853.3 291.7 906.7 272.8 933.3L254 960Z" fill="#9d4a26"></path><path d="M96 960L110.5 933.3C125 906.7 154 853.3 163 800C172 746.7 161 693.3 156.5 640C152 586.7 154 533.3 160.3 480C166.7 426.7 177.3 373.3 176.3 320C175.3 266.7 162.7 213.3 160 160C157.3 106.7 164.7 53.3 168.3 26.7L172 0L248 0L238.2 26.7C228.3 53.3 208.7 106.7 210.5 160C212.3 213.3 235.7 266.7 241 320C246.3 373.3 233.7 426.7 228.3 480C223 533.3 225 586.7 230.5 640C236 693.3 245 746.7 229.7 800C214.3 853.3 174.7 906.7 154.8 933.3L135 960Z" fill="#b36137"></path><path d="M0 960L0 933.3C0 906.7 0 853.3 0 800C0 746.7 0 693.3 0 640C0 586.7 0 533.3 0 480C0 426.7 0 373.3 0 320C0 266.7 0 213.3 0 160C0 106.7 0 53.3 0 26.7L0 0L173 0L169.3 26.7C165.7 53.3 158.3 106.7 161 160C163.7 213.3 176.3 266.7 177.3 320C178.3 373.3 167.7 426.7 161.3 480C155 533.3 153 586.7 157.5 640C162 693.3 173 746.7 164 800C155 853.3 126 906.7 111.5 933.3L97 960Z" fill="#ca7848"></path></svg>