<svg id="visual" viewBox="0 0 900 600" width="900" height="600" xmlns="http://www.w3.org/2000/svg" xmlns:xlink="http://www.w3.org/1999/xlink" version="1.1"><rect x="0" y="0" width="900" height="600" fill="#f7eacb"></rect><path d="M0 442L25 442.2C50 442.3 100 442.7 150 438.7C200 434.7 250 426.3 300 421.3C350 416.3 400 414.7 450 423.8C500 433 550 453 600 461.2C650 469.3 700 465.7 750 457C800 448.3 850 434.7 875 427.8L900 421L900 601L875 601C850 601 800 601 750 601C700 601 650 601 600 601C550 601 500 601 450 601C400 601 350 601 300 601C250 601 200 601 150 601C100 601 50 601 25 601L0 601Z" fill="#e9c497"></path><path d="M0 467L25 464.8C50 462.7 100 458.3 150 463C200 467.7 250 481.3 300 485.3C350 489.3 400 483.7 450 477.5C500 471.3 550 464.7 600 470.3C650 476 700 494 750 492.5C800 491 850 470 875 459.5L900 449L900 601L875 601C850 601 800 601 750 601C700 601 650 601 600 601C550 601 500 601 450 601C400 601 350 601 300 601C250 601 200 601 150 601C100 601 50 601 25 601L0 601Z" fill="#c8996d"></path><path d="M0 513L25 512.3C50 511.7 100 510.3 150 512C200 513.7 250 518.3 300 524.8C350 531.3 400 539.7 450 546C500 552.3 550 556.7 600 559.5C650 562.3 700 563.7 750 561.2C800 558.7 850 552.3 875 549.2L900 546L900 601L875 601C850 601 800 601 750 601C700 601 650 601 600 601C550 601 500 601 450 601C400 601 350 601 300 601C250 601 200 601 150 601C100 601 50 601 25 601L0 601Z" fill="#a87046"></path></svg>