<svg id="visual" viewBox="0 0 900 600" width="900" height="600" xmlns="http://www.w3.org/2000/svg" xmlns:xlink="http://www.w3.org/1999/xlink" version="1.1"><rect x="0" y="0" width="900" height="600" fill="#3E230F"></rect><path d="M0 404L21.5 408.8C43 413.7 86 423.3 128.8 422C171.7 420.7 214.3 408.3 257.2 406C300 403.7 343 411.3 385.8 415.8C428.7 420.3 471.3 421.7 514.2 417C557 412.3 600 401.7 642.8 399.5C685.7 397.3 728.3 403.7 771.2 409.5C814 415.3 857 420.7 878.5 423.3L900 426L900 601L878.5 601C857 601 814 601 771.2 601C728.3 601 685.7 601 642.8 601C600 601 557 601 514.2 601C471.3 601 428.7 601 385.8 601C343 601 300 601 257.2 601C214.3 601 171.7 601 128.8 601C86 601 43 601 21.5 601L0 601Z" fill="#5b3f2a"></path><path d="M0 500L21.5 497C43 494 86 488 128.8 480.3C171.7 472.7 214.3 463.3 257.2 465.7C300 468 343 482 385.8 493.3C428.7 504.7 471.3 513.3 514.2 517.2C557 521 600 520 642.8 515.2C685.7 510.3 728.3 501.7 771.2 502.3C814 503 857 513 878.5 518L900 523L900 601L878.5 601C857 601 814 601 771.2 601C728.3 601 685.7 601 642.8 601C600 601 557 601 514.2 601C471.3 601 428.7 601 385.8 601C343 601 300 601 257.2 601C214.3 601 171.7 601 128.8 601C86 601 43 601 21.5 601L0 601Z" fill="#2d1d11"></path><path d="M0 521L21.5 520.3C43 519.7 86 518.3 128.8 521.7C171.7 525 214.3 533 257.2 541.5C300 550 343 559 385.8 559.8C428.7 560.7 471.3 553.3 514.2 551C557 548.7 600 551.3 642.8 554.2C685.7 557 728.3 560 771.2 554.2C814 548.3 857 533.7 878.5 526.3L900 519L900 601L878.5 601C857 601 814 601 771.2 601C728.3 601 685.7 601 642.8 601C600 601 557 601 514.2 601C471.3 601 428.7 601 385.8 601C343 601 300 601 257.2 601C214.3 601 171.7 601 128.8 601C86 601 43 601 21.5 601L0 601Z" fill="#23170d"></path></svg>