<svg id="visual" viewBox="0 0 900 600" width="900" height="600" xmlns="http://www.w3.org/2000/svg" xmlns:xlink="http://www.w3.org/1999/xlink" version="1.1"><rect x="0" y="0" width="900" height="600" fill="#a87046"></rect><path d="M0 479L15 482.7C30 486.3 60 493.7 90 497.5C120 501.3 150 501.7 180 504.8C210 508 240 514 270 507C300 500 330 480 360 473.3C390 466.7 420 473.3 450 479.7C480 486 510 492 540 495.3C570 498.7 600 499.3 630 493.8C660 488.3 690 476.7 720 476.5C750 476.3 780 487.7 810 485.7C840 483.7 870 468.3 885 460.7L900 453L900 601L885 601C870 601 840 601 810 601C780 601 750 601 720 601C690 601 660 601 630 601C600 601 570 601 540 601C510 601 480 601 450 601C420 601 390 601 360 601C330 601 300 601 270 601C240 601 210 601 180 601C150 601 120 601 90 601C60 601 30 601 15 601L0 601Z" fill="#81502b"></path><path d="M0 499L15 503.8C30 508.7 60 518.3 90 521C120 523.7 150 519.3 180 518.7C210 518 240 521 270 518.7C300 516.3 330 508.7 360 510.7C390 512.7 420 524.3 450 530.7C480 537 510 538 540 533.2C570 528.3 600 517.7 630 516C660 514.3 690 521.7 720 523.2C750 524.7 780 520.3 810 522.7C840 525 870 534 885 538.5L900 543L900 601L885 601C870 601 840 601 810 601C780 601 750 601 720 601C690 601 660 601 630 601C600 601 570 601 540 601C510 601 480 601 450 601C420 601 390 601 360 601C330 601 300 601 270 601C240 601 210 601 180 601C150 601 120 601 90 601C60 601 30 601 15 601L0 601Z" fill="#5e391d"></path><path d="M0 537L15 537C30 537 60 537 90 541.5C120 546 150 555 180 561.3C210 567.7 240 571.3 270 568.8C300 566.3 330 557.7 360 553.7C390 549.7 420 550.3 450 547.8C480 545.3 510 539.7 540 540.5C570 541.3 600 548.7 630 548.5C660 548.3 690 540.7 720 541.8C750 543 780 553 810 558.8C840 564.7 870 566.3 885 567.2L900 568L900 601L885 601C870 601 840 601 810 601C780 601 750 601 720 601C690 601 660 601 630 601C600 601 570 601 540 601C510 601 480 601 450 601C420 601 390 601 360 601C330 601 300 601 270 601C240 601 210 601 180 601C150 601 120 601 90 601C60 601 30 601 15 601L0 601Z" fill="#3e230f"></path></svg>