<?xml version="1.0" encoding="iso-8859-1"?>
<!-- Uploaded to: SVG Repo, www.svgrepo.com, Generator: SVG Repo Mixer Tools -->
<!DOCTYPE svg PUBLIC "-//W3C//DTD SVG 1.1//EN" "http://www.w3.org/Graphics/SVG/1.1/DTD/svg11.dtd">
<svg fill="#000000" version="1.1" id="Capa_1" xmlns="http://www.w3.org/2000/svg" xmlns:xlink="http://www.w3.org/1999/xlink" 
	 width="800px" height="800px" viewBox="0 0 570.277 570.277"
	 xml:space="preserve">
<g>
	<path d="M528.279,262.465c-25.701-34.9-70.4-52.6-110.201-66.1c-39.799-13.5-96.1-28.8-138.3-19.6c2.4-59.4-19-110.8-98.5-100.4
		c-5.5,0.6-8.6,4.3-10.4,8.6c-86.3,51.4-136.5,164-161,257c-14.7,55.1-25.7,170.2,64.9,151.2c74.1-15.3,122.4-84.5,155.4-153
		c52.6,20.8,107.101,36.7,161.601,49.6c46.5,10.4,113.199,26.9,157.299,0C598.078,359.764,549.677,291.165,528.279,262.465z
		 M386.279,211.665c42.199,9.8,84.5,26.9,116.299,56.9c20.201,18.399,39.801,48.3,41,72.199c-33.699-20.2-75.9-31.2-112.6-44.1
		c-53.199-19-108.301-36.7-164-46.5h-0.6c5.5-17.7,9.8-36.7,12.2-55.7C313.478,204.265,350.779,203.065,386.279,211.665z
		 M38.678,463.764c-29.4-25.7-2.4-123,5.5-149.3c23.9-76.5,67.3-167.1,135.3-215.399c0.6,0,1.8,0,2.4,0c26.3-3.1,44.1,1.8,55.7,12.2
		c-4.9,0-9.8,2.4-11,8c-26.3,123-107.1,250.9-187.3,343.299C39.278,463.165,39.278,463.764,38.678,463.764z M228.378,282.665
		c-29.4,74.7-74.1,155.399-153.6,183.599c-10.4,3.7-19,4.3-25.7,2.4c2.4,0,4.9-0.601,7.3-2.4c50.2-38.6,85.1-102.8,116.3-156.7
		c32.4-55.699,67.3-119.999,76.5-184.799C269.978,165.165,246.178,239.765,228.378,282.665z M502.578,378.064
		c-88.699,8-182.4-27.5-266.8-50.8c8.6-19.6,16.5-38.6,23.3-56.299c1.2-3.7,2.4-7.3,3.7-11c0.6,0,0.6,0.6,1.2,0.6
		c49.6,15.9,97.9,32.399,146.301,51.399c41,16.5,84.5,40.4,127.898,49.6C531.978,370.764,520.978,376.264,502.578,378.064z"/>
</g>
</svg>