<?xml version="1.0" encoding="iso-8859-1"?>
<!-- Uploaded to: SVG Repo, www.svgrepo.com, Generator: SVG Repo Mixer Tools -->
<!DOCTYPE svg PUBLIC "-//W3C//DTD SVG 1.1//EN" "http://www.w3.org/Graphics/SVG/1.1/DTD/svg11.dtd">
<svg fill="#000000" version="1.1" id="Capa_1" xmlns="http://www.w3.org/2000/svg" xmlns:xlink="http://www.w3.org/1999/xlink" 
	 width="800px" height="800px" viewBox="0 0 536.527 536.527"
	 xml:space="preserve">
<g>
	<path d="M399.236,351.096c6.101-16.5,8.601-35.5,5.5-55.7c6.101-10.4,9.2-22.6,6.101-36.7c-11-53.9-77.7-72.8-124.2-80.2
		c-50.2-8-116.3,0.6-138.9,54.5c-1.8,4.3-3.1,8-3.7,12.2c-13.5-4.3-28.2-4.3-41,0c-1.8,0-3.1,0-4.9,0.6c-19.6,3.1-34.9,19-42.2,36.7
		c-7.3,17.7-6.1,37.9,6.7,52.601c7.3,8,18.4,12.899,28.8,14.7c11.6,1.8,30,3.1,41-3.101c2.4-0.6,4.3-1.2,6.1-2.399
		c1.8,4.899,3.7,10.399,6.1,15.3c-53.2,1.2-97.3,55.7-61.8,105.3c34.9,48.3,116.3,56.3,170.1,63.6
		c57.5,7.301,162.8,24.5,201.3-34.899C491.636,436.195,464.736,361.495,399.236,351.096z M133.636,308.896c-8,0-15.9-0.6-23.3-4.3
		c-1.8-0.601-3.7-2.4-4.9-3.7c-0.6-1.2-0.6-1.2,0-3.7c3.7-11.6,19.6-12.899,30.6-15.899
		C134.236,290.495,133.036,299.695,133.636,308.896z M240.136,197.496c36.1-3.1,74.1,5.5,107.1,20.8c22,9.8,46.5,32.4,42.2,56.3
		c-2.399,1.2-3.7,3.7-4.3,6.7c0,1.199,0,3.1,0,4.3c-1.2,2.399-2.4,4.3-4.3,6.7c-9.8,11.6-26.3,16.5-43.5,17.699
		c-4.3,0-8.601,0.601-12.2,0.601c-5.5,0-11,0-15.9,0c26.9-9.8,47.101-28.8,28.2-58.1c-26.3-41.6-96.7-43.5-133.4-18.4
		c-4.9,3.1-6.1,8.6-3.7,14.1c20.2,40.4,57.5,46.5,96.7,28.8c9.8-4.3,3.1-22-7.301-17.7c-25.7,9.8-49.6,10.4-66.1-12.2
		c30-15.3,68.5-9.8,94.2,13.5c28.8,25.7-40.4,36.7-53.2,37.3c-23.9,0.6-47.7-6.7-68.5-17.1
		C131.136,248.295,199.036,201.195,240.136,197.496z M262.736,440.495c-53.2,2.4-99.1-17.1-123.6-63.6c4.9-1.8,9.2-3.7,13.5-4.9
		c20.8,31.801,56.9,55.101,99.8,60.601c56.9,7.3,111.4-17.7,137.7-61.8c1.8,0.6,3.7,1.199,4.9,1.8
		C374.136,422.096,311.736,437.995,262.736,440.495z"/>
	<path d="M299.436,0.396c-7.3-2.4-11,6.7-6.7,11.6c10.4,12.9,25.7,21.4,26.301,39.8c0.6,22.6-33,34.9-49.601,41
		c-4.3,1.2-8,5.5-7.3,9.8c2.4,26.9,15.9,38.6,37.9,51.4c9.199,5.5,15.899-8,8-13.5c-12.9-9.2-22-15.9-25.101-30.6
		c24.5-9.2,48.3-23.3,55.101-49.6C345.336,34.695,322.736,7.195,299.436,0.396z"/>
	<path d="M216.236,141.795c-18.4-5.5-20.8-12.2-22-29.4c-0.6-8.6-3.7-16.5-11-22.6c-21.4-17.1-47.7-49.6-76.5-51.4
		c-6.7-0.6-8,7.3-4.9,11.6c10.4,12.9,28.8,20.8,42.2,30.6c9.8,7.3,28.8,19,31.8,31.2c2.4,9.8,1.8,18.4,7.3,26.9
		c6.7,11,20.2,12.9,31.8,14.1C221.736,154.096,222.336,143.695,216.236,141.795z"/>
	<path d="M476.336,67.195c-4.3-6.1-13.5-3.7-14.101,3.7c-0.6,20.2,3.7,37.9,0.601,56.9c-21.4-7.3-45.3-3.1-67.3-8
		c-4.9-1.2-11.601,2.4-11,8.6c1.199,13.5,6.699,25.1,8,37.9c1.199,8.6,14.1,9.2,14.1,0c0-9.2-2.4-18.4-3.7-26.9
		c20.8,3.1,43.5-0.6,61.8,9.8c5.5,3.1,12.2,0,13.5-5.5C485.537,122.195,489.736,86.695,476.336,67.195z"/>
</g>
</svg>