<svg id="visual" viewBox="0 0 900 600" width="900" height="600" xmlns="http://www.w3.org/2000/svg" xmlns:xlink="http://www.w3.org/1999/xlink" version="1.1"><rect x="0" y="0" width="900" height="600" fill="#f9f4e3"></rect><path d="M0 59L21.5 55.7C43 52.3 86 45.7 128.8 45.5C171.7 45.3 214.3 51.7 257.2 52.5C300 53.3 343 48.7 385.8 53C428.7 57.3 471.3 70.7 514.2 69.2C557 67.7 600 51.3 642.8 47C685.7 42.7 728.3 50.3 771.2 55C814 59.7 857 61.3 878.5 62.2L900 63L900 0L878.5 0C857 0 814 0 771.2 0C728.3 0 685.7 0 642.8 0C600 0 557 0 514.2 0C471.3 0 428.7 0 385.8 0C343 0 300 0 257.2 0C214.3 0 171.7 0 128.8 0C86 0 43 0 21.5 0L0 0Z" fill="#A87046"></path></svg>