<?xml version="1.0" ?>
<!DOCTYPE svg  PUBLIC '-//W3C//DTD SVG 1.1//EN'  'http://www.w3.org/Graphics/SVG/1.1/DTD/svg11.dtd'>
<!-- Uploaded to: SVG Repo, www.svgrepo.com, Generator: SVG Repo Mixer Tools -->
<svg fill="#000000" width="800px" height="800px" viewBox="0 0 48 48" enable-background="new 0 0 48 48" id="Layer_1" version="1.1" xml:space="preserve" xmlns="http://www.w3.org/2000/svg" xmlns:xlink="http://www.w3.org/1999/xlink">
<g>
<g>
<path d="M20.423,42.793c-0.331,0-0.642-0.162-0.827-0.438l-4.024-5.938l-4.447,1.551c-0.25,0.088-0.528,0.072-0.769-0.045    c-4.068-1.99-6.57-9.189-3.7-15.491c2.16-4.743,5.863-7.656,11.323-8.906c0.973-0.224,1.98-0.06,2.887,0.395    c0.346-3.115,1.732-5.654,3.936-7.181c2.297-1.592,5.307-1.958,8.473-1.034c3.387,0.988,5.94,4.017,6.355,7.536    c0.498,4.216-2.698,9.297-6.217,9.885c-1.801,0.302-3.648-0.263-5.436-0.809c-0.553-0.169-1.103-0.337-1.644-0.475    c-0.451-0.115-0.875-0.278-1.308-0.47c2.32,5.927,1.916,11.261-1.221,16.263c-0.535,0.852-1.01,1.77-1.559,2.832    c-0.287,0.555-0.594,1.15-0.942,1.799c-0.165,0.307-0.479,0.506-0.829,0.525C20.457,42.793,20.439,42.793,20.423,42.793z     M15.968,34.221c0.325,0,0.638,0.16,0.827,0.439l3.52,5.191c0.053-0.102,0.104-0.203,0.154-0.301    c0.57-1.104,1.063-2.055,1.641-2.977c3.004-4.791,3.162-9.962,0.483-15.812c-0.093-0.203-0.112-0.42-0.069-0.622    c-0.156-0.143-0.266-0.334-0.307-0.548l-0.025-0.143c-0.041-0.228-0.119-0.668-0.224-1.104c-0.444-1.858-2.099-3.2-3.544-2.87    c-4.811,1.102-8.064,3.648-9.948,7.786c-2.289,5.024-0.572,10.854,2.409,12.674l4.754-1.658    C15.747,34.24,15.858,34.221,15.968,34.221z M24.089,18.711c0.292,0.137,0.565,0.27,0.825,0.397    c0.742,0.362,1.328,0.648,1.913,0.798c0.57,0.145,1.151,0.322,1.734,0.5c1.564,0.478,3.18,0.971,4.521,0.749    c2.242-0.375,4.957-4.313,4.561-7.678c-0.322-2.733-2.303-5.084-4.93-5.851c-2.577-0.753-4.983-0.483-6.773,0.758    c-1.811,1.255-2.92,3.447-3.125,6.173c-0.022,0.296-0.109,0.549-0.193,0.762c0.6,0.708,1.058,1.582,1.292,2.561    C23.982,18.173,24.043,18.468,24.089,18.711z"/>
</g>
<g>
<path d="M22.648,41.52c-0.414,0-0.825-0.027-1.236-0.082c-0.547-0.074-0.93-0.578-0.855-1.125    c0.073-0.549,0.574-0.928,1.125-0.857c3.82,0.516,7.951-2.064,9.807-6.139c0.425-0.934,0.689-1.992,0.996-3.219    c0.061-0.238,0.121-0.484,0.186-0.735l-7.165,0.358c-0.542,0.039-1.021-0.397-1.048-0.949c-0.028-0.552,0.396-1.021,0.948-1.049    l8.537-0.426c0.317-0.023,0.632,0.123,0.833,0.376c0.2,0.253,0.268,0.587,0.178,0.896c-0.205,0.721-0.371,1.388-0.528,2.013    c-0.331,1.322-0.616,2.465-1.116,3.563C31.291,38.578,26.949,41.52,22.648,41.52z"/>
</g>
<g>
<path d="M7.31,30c-0.538,0-0.982-0.428-0.999-0.969C6.293,28.479,6.727,28.018,7.279,28l17.586-0.557    c0.559-0.033,1.014,0.416,1.031,0.967c0.018,0.553-0.416,1.014-0.967,1.031L7.342,30C7.332,30,7.321,30,7.31,30z"/>
</g>
<g>
<path d="M21.891,23.942c-4.68,0-8.585-1.396-11.883-4.235c-0.418-0.36-0.466-0.992-0.105-1.41c0.36-0.419,0.991-0.467,1.41-0.105    c3.441,2.962,7.666,4.15,12.924,3.631c0.48-0.047,1.018-0.307,1.586-0.583c0.311-0.151,0.623-0.301,0.937-0.427    c0.517-0.206,1.095,0.044,1.3,0.556c0.206,0.513-0.043,1.095-0.556,1.3c-0.271,0.109-0.54,0.24-0.81,0.37    c-0.668,0.324-1.426,0.691-2.262,0.773C23.561,23.899,22.713,23.942,21.891,23.942z"/>
</g>
<g>
<path d="M17.25,41.656c-2.548,0-4.871-1.193-7.054-3.611c-0.37-0.41-0.338-1.043,0.072-1.412c0.41-0.371,1.042-0.338,1.412,0.072    c2.275,2.52,4.472,3.373,7.131,2.766c0.536-0.123,1.075,0.215,1.198,0.752c0.122,0.539-0.215,1.076-0.753,1.199    C18.572,41.578,17.904,41.656,17.25,41.656z"/>
</g>
<g>
<path d="M35.225,16.321c-0.486,0-0.914-0.357-0.987-0.854c-0.468-3.171-1.562-4.252-5.09-5.032    c-0.539-0.119-0.88-0.653-0.761-1.192c0.119-0.539,0.65-0.881,1.192-0.761c4.312,0.953,6.048,2.704,6.637,6.693    c0.081,0.546-0.297,1.055-0.843,1.135C35.323,16.317,35.273,16.321,35.225,16.321z"/>
</g>
<g>
<path d="M39.192,28.738c-0.297,0-0.579-0.132-0.769-0.36l-4.524-5.438c-0.354-0.424-0.296-1.055,0.129-1.408    c0.425-0.354,1.054-0.296,1.408,0.129l3.741,4.498l1.08-1.348l-3.807-4.061c-0.378-0.403-0.357-1.036,0.046-1.414    c0.403-0.376,1.036-0.357,1.413,0.046l4.399,4.693c0.341,0.363,0.362,0.921,0.05,1.311l-2.387,2.978    c-0.188,0.234-0.471,0.372-0.771,0.375C39.199,28.738,39.195,28.738,39.192,28.738z"/>
</g>
<g>
<path d="M28.805,37.816c-0.201,0-0.406-0.061-0.582-0.188c-3.336-2.393-6.955-2.807-11.07-1.271    c-0.518,0.195-1.094-0.068-1.287-0.586c-0.193-0.518,0.069-1.094,0.586-1.287c4.72-1.762,9.074-1.252,12.937,1.52    c0.449,0.322,0.551,0.947,0.229,1.396C29.423,37.672,29.116,37.816,28.805,37.816z"/>
</g>
<g>
<path d="M14.57,29.722c-0.043,0-0.087-0.003-0.13-0.009c-0.548-0.07-0.934-0.572-0.863-1.12l0.838-6.422    c0.072-0.548,0.573-0.93,1.122-0.862c0.547,0.072,0.934,0.574,0.862,1.122l-0.838,6.42C15.495,29.354,15.064,29.722,14.57,29.722z    "/>
</g>
<g>
<path d="M15.406,22.462c-0.221,0-0.443-0.073-0.629-0.223c-0.429-0.348-0.495-0.978-0.148-1.407l4.745-5.863    c0.347-0.429,0.977-0.497,1.406-0.148c0.43,0.347,0.496,0.977,0.148,1.406l-4.745,5.864    C15.986,22.336,15.697,22.462,15.406,22.462z"/>
</g>
<g>
<path d="M15.963,35.863c-0.448,0-0.856-0.303-0.969-0.758l-1.396-5.584c-0.134-0.535,0.192-1.078,0.728-1.213    c0.532-0.135,1.079,0.192,1.212,0.729l1.395,5.584c0.135,0.535-0.191,1.078-0.728,1.213    C16.125,35.854,16.043,35.863,15.963,35.863z"/>
</g>
<g>
<path d="M32.713,29.163c-0.484,0-0.909-0.352-0.986-0.845l-0.838-5.305c-0.086-0.545,0.285-1.057,0.832-1.144    c0.544-0.081,1.057,0.286,1.143,0.832l0.838,5.306c0.086,0.545-0.286,1.057-0.832,1.143    C32.816,29.159,32.764,29.163,32.713,29.163z"/>
</g>
</g>
</svg>