<svg data-v-0dd9719b="" version="1.0" xmlns="http://www.w3.org/2000/svg" xmlns:xlink="http://www.w3.org/1999/xlink" width="100%" height="100%" viewBox="0 0 340.000000 250.000000" preserveAspectRatio="xMidYMid meet" color-interpolation-filters="sRGB" style="margin: auto;"> <rect data-v-0dd9719b="" x="0" y="0" width="100%" height="100%" fill="#ffffff" fill-opacity="0" class="background"></rect> <rect data-v-0dd9719b="" x="0" y="0" width="100%" height="100%" fill="url(#watermark)" fill-opacity="1" class="watermarklayer"></rect> <g data-v-0dd9719b="" class="iconmbgsvg" transform="translate(80.3949966430664,68.16459655761719)"><g fill="#000000" hollow-target="textNormalTran"><g opacity="1" transform="matrix(1,0,0,1,33.355003356933594,0)"><g><rect fill="#000000" fill-opacity="0" stroke-width="2" x="0" y="0" width="112.5" height="113.67080933616248" class="image-rect"></rect> <svg x="0" y="0" width="112.5" height="113.67080933616248" filtersec="colorsb7159466572" class="image-svg-svg primary" style="overflow: visible;"><svg version="1.1" id="图层_1" xmlns="http://www.w3.org/2000/svg" xmlns:xlink="http://www.w3.org/1999/xlink" x="0px" y="0px" viewBox="1.940000057220459 1.2799999713897705 97.05999755859375 98.07000732421875" enable-background="new 0 0 100 100" xml:space="preserve">
<path fill="#FC9E08" d="M63.86,3.23c7.95,2.35,15.06,6.66,20.77,12.36C93.51,24.48,99,36.75,99,50.29c0,13.55-5.49,25.82-14.37,34.7
	c-8.68,8.68-20.6,14.12-33.8,14.36v0l-0.28,0l-0.25,0v-0.01c-4.15-0.14-7.9-1.89-10.65-4.63c-2.86-2.87-4.64-6.82-4.64-11.19
	c0-4.37,1.77-8.33,4.64-11.2c2.74-2.75,6.49-4.49,10.65-4.63v-0.03c4.66-0.1,8.86-2.02,11.93-5.09c3.14-3.15,5.09-7.49,5.09-12.3
	c0-4.8-1.95-9.15-5.09-12.29c-1.2-1.2-2.57-2.22-4.08-3.03c1.24-0.58,2.41-1.29,3.5-2.11c1.13,0.76,2.18,1.62,3.13,2.58
	c3.8,3.8,6.15,9.05,6.15,14.85c0,5.8-2.35,11.05-6.15,14.85c-3.6,3.6-8.51,5.9-13.95,6.13v0.03c-3.37,0-6.42,1.37-8.63,3.58
	c-2.21,2.21-3.58,5.27-3.58,8.64c0,3.37,1.37,6.43,3.58,8.64c2.15,2.15,5.1,3.5,8.36,3.58c12.3-0.17,23.42-5.22,31.51-13.31
	c8.22-8.23,13.31-19.59,13.31-32.14c0-12.55-5.09-23.91-13.31-32.14c-4.14-4.14-9.08-7.49-14.57-9.79
	C66.57,6.46,65.33,4.73,63.86,3.23L63.86,3.23z M69.17,20.87c2.03,1.33,3.92,2.86,5.62,4.57c6.36,6.36,10.3,15.15,10.3,24.86
	c0,9.71-3.94,18.5-10.3,24.86c-6.23,6.23-14.8,10.14-24.27,10.29l0,0c-0.48-0.01-0.91-0.21-1.23-0.53
	c-0.33-0.33-0.53-0.78-0.53-1.28c0-0.5,0.2-0.95,0.53-1.28c0.32-0.32,0.75-0.52,1.23-0.53h0c8.48-0.15,16.14-3.65,21.72-9.23
	c5.71-5.71,9.24-13.59,9.24-22.3c0-8.71-3.53-16.6-9.24-22.3c-1.28-1.28-2.67-2.45-4.15-3.49C68.56,23.34,68.93,22.13,69.17,20.87
	L69.17,20.87z M50.86,92.45l-0.2,0l-0.37,0v-0.02c-2.22-0.14-4.22-1.1-5.7-2.58c-1.6-1.6-2.59-3.81-2.59-6.26
	c0-2.44,0.99-4.66,2.59-6.26c1.48-1.48,3.48-2.44,5.7-2.58l0,0h0.02c0.18-0.01,0.36-0.02,0.54-0.02h0.05
	c6.37-0.25,12.1-2.93,16.32-7.14c4.43-4.43,7.17-10.54,7.17-17.3c0-6.75-2.74-12.87-7.17-17.3c-0.91-0.91-1.9-1.75-2.95-2.51
	c0.82-0.88,1.56-1.84,2.2-2.87c1.17,0.86,2.28,1.8,3.3,2.83c5.08,5.08,8.23,12.1,8.23,19.85c0,7.75-3.14,14.77-8.23,19.85
	c-4.85,4.86-11.48,7.94-18.82,8.2v0.01h-0.1c-1.45,0-2.75,0.59-3.7,1.53c-0.95,0.95-1.53,2.26-1.53,3.7c0,1.44,0.59,2.75,1.53,3.7
	c0.95,0.95,2.25,1.53,3.7,1.53l0.1,0v0c10.24-0.27,19.48-4.52,26.23-11.28c6.97-6.97,11.29-16.61,11.29-27.25
	c0-10.64-4.32-20.28-11.29-27.25c-2.29-2.28-4.86-4.28-7.66-5.94v-0.02c0-1.5-0.17-2.96-0.48-4.37c3.97,2.02,7.57,4.65,10.69,7.77
	c7.63,7.63,12.35,18.17,12.35,29.81c0,11.64-4.72,22.18-12.35,29.81c-7.4,7.4-17.55,12.06-28.78,12.33v0.01H50.86L50.86,92.45z"></path>
<path fill="#FC9E08" d="M37.08,97.41c-7.95-2.35-15.06-6.66-20.77-12.36C7.43,76.17,1.94,63.9,1.94,50.35
	c0-13.55,5.49-25.82,14.37-34.7c8.68-8.68,20.6-14.12,33.8-14.36V1.28l0.28,0l0.25,0v0.01c4.15,0.14,7.9,1.88,10.64,4.63
	c2.87,2.86,4.64,6.82,4.64,11.19c0,4.37-1.77,8.33-4.64,11.19c-2.74,2.75-6.49,4.49-10.64,4.63v0.02c-4.66,0.1-8.86,2.02-11.93,5.09
	c-3.15,3.15-5.09,7.49-5.09,12.3c0,4.8,1.95,9.15,5.09,12.29c1.2,1.2,2.57,2.22,4.08,3.03c-1.24,0.58-2.41,1.29-3.5,2.1
	c-1.13-0.76-2.18-1.62-3.13-2.58c-3.8-3.8-6.15-9.05-6.15-14.85c0-5.8,2.35-11.05,6.15-14.85c3.6-3.6,8.51-5.9,13.95-6.13v-0.03
	c3.37,0,6.42-1.37,8.63-3.58c2.21-2.21,3.58-5.27,3.58-8.64c0-3.37-1.37-6.43-3.58-8.64c-2.15-2.15-5.1-3.5-8.36-3.58
	c-12.3,0.17-23.42,5.22-31.51,13.31C10.64,26.43,5.55,37.8,5.55,50.35c0,12.55,5.09,23.92,13.31,32.14
	c4.14,4.14,9.08,7.49,14.57,9.79C34.37,94.18,35.61,95.92,37.08,97.41L37.08,97.41z M31.77,79.78c-2.03-1.33-3.91-2.86-5.62-4.57
	c-6.36-6.36-10.3-15.15-10.3-24.86c0-9.71,3.93-18.5,10.3-24.86c6.23-6.23,14.8-10.14,24.27-10.29l0,0
	c0.48,0.01,0.91,0.21,1.23,0.53c0.32,0.33,0.53,0.78,0.53,1.28c0,0.5-0.2,0.95-0.53,1.28c-0.32,0.32-0.75,0.52-1.23,0.53h0
	c-8.48,0.15-16.14,3.65-21.72,9.23c-5.71,5.71-9.24,13.59-9.24,22.3c0,8.71,3.53,16.6,9.24,22.3c1.28,1.28,2.67,2.45,4.15,3.49
	C32.38,77.3,32.02,78.52,31.77,79.78L31.77,79.78z M50.08,8.2l0.2,0l0.37,0v0.02c2.22,0.14,4.22,1.1,5.7,2.58
	c1.6,1.6,2.6,3.82,2.6,6.26c0,2.45-0.99,4.66-2.6,6.26c-1.48,1.48-3.48,2.44-5.7,2.58l0,0h-0.02c-0.18,0.01-0.36,0.02-0.54,0.02
	h-0.06c-6.36,0.25-12.1,2.93-16.31,7.14c-4.43,4.43-7.16,10.54-7.16,17.3c0,6.76,2.74,12.87,7.16,17.3c0.91,0.91,1.9,1.76,2.94,2.51
	c-0.82,0.88-1.56,1.84-2.2,2.87c-1.17-0.86-2.27-1.8-3.3-2.83c-5.08-5.08-8.22-12.1-8.22-19.85c0-7.75,3.14-14.77,8.22-19.85
	c4.86-4.86,11.48-7.94,18.82-8.21v-0.01h0.1c1.44,0,2.75-0.59,3.7-1.53c0.95-0.94,1.53-2.25,1.53-3.7c0-1.44-0.58-2.75-1.53-3.7
	c-0.95-0.95-2.25-1.53-3.7-1.53l-0.1,0v0c-10.24,0.27-19.48,4.53-26.23,11.27c-6.98,6.97-11.29,16.61-11.29,27.25
	c0,10.64,4.32,20.28,11.29,27.26c2.28,2.29,4.85,4.28,7.65,5.94v0.02c0,1.5,0.17,2.96,0.48,4.37c-3.97-2.02-7.58-4.65-10.7-7.77
	C13.57,72.53,8.85,61.99,8.85,50.35s4.72-22.18,12.35-29.81C28.6,13.14,38.75,8.47,49.98,8.21V8.2L50.08,8.2L50.08,8.2z"></path>
</svg></svg> <!----></g></g> <g transform="translate(0,36.58740425109863)"><g data-gra="path-name" fill-rule="" class="tp-name" transform="matrix(1,0,0,1,0,0)" opacity="1"><g transform="scale(1)"><g><path d="M20.66-2.77L4.24-2.77C3.52-2.77 2.91-3.38 2.91-4.1L2.91-6.05 0.14-6.05 0.14-4.1C0.14-1.84 1.98 0 4.24 0L20.66 0C22.92 0 24.77-1.84 24.77-4.1L24.77-24.63 22-24.63 22-4.1C22-3.38 21.39-2.77 20.66-2.77ZM44.54-2.81L32.63-2.81C31.91-2.81 31.3-3.42 31.3-4.14L31.3-19.84 28.49-19.84 28.49-4.14C28.49-1.88 30.37 0 32.63 0L44.54 0C46.83 0 48.71-1.86 48.71-4.14L48.71-19.84 45.91-19.84 45.91-4.14C45.91-3.42 45.26-2.81 44.54-2.81ZM56.37 0L59.73 0 59.73-2.81 56.37-2.81C55.65-2.81 55.04-3.42 55.04-4.14L55.04-26.34 52.23-26.34 52.23-4.14C52.23-1.88 54.11 0 56.37 0ZM62.57 0L65.37 0 65.37-19.84 62.57-19.84ZM62.57-26.34L62.57-23.53 65.37-23.53 65.37-26.34ZM85.86-15.7L85.86-11.32 68.48-11.32 68.48-4.14C68.48-1.88 70.36 0 72.62 0L88.7 0 88.7-15.7C88.7-17.98 86.82-19.84 84.53-19.84L68.48-19.84 68.48-17.04 84.53-17.04C85.25-17.04 85.86-16.42 85.86-15.7ZM71.29-4.14L71.29-8.52 85.86-8.52 85.86-2.81 72.62-2.81C71.9-2.81 71.29-3.42 71.29-4.14ZM95.95-17.04L107.86-17.04C108.58-17.04 109.19-16.42 109.19-15.7L109.19 0 112 0 112-15.7C112-17.96 110.12-19.84 107.86-19.84L91.78-19.84 91.78 0 94.58 0 94.58-15.7C94.58-16.42 95.23-17.04 95.95-17.04ZM131.43-19.84L119.52-19.84C117.26-19.84 115.38-17.96 115.38-15.7L115.38-12.66C115.38-10.4 117.26-8.52 119.52-8.52L131.43-8.52C132.15-8.52 132.76-7.91 132.76-7.18L132.76-4.14C132.76-3.42 132.15-2.81 131.43-2.81L119.52-2.81C118.8-2.81 118.19-3.42 118.19-4.14L118.19-4.41 115.38-4.41 115.38-4.14C115.38-1.88 117.26 0 119.52 0L131.43 0C133.72 0 135.6-1.86 135.6-4.14L135.6-7.18C135.6-9.46 133.72-11.32 131.43-11.32L119.52-11.32C118.8-11.32 118.19-11.93 118.19-12.66L118.19-15.7C118.19-16.42 118.8-17.04 119.52-17.04L131.43-17.04C132.15-17.04 132.76-16.42 132.76-15.7L132.76-15.43 135.6-15.43 135.6-15.7C135.6-17.98 133.72-19.84 131.43-19.84ZM148.46 0L151.23 0 151.23-24.63 148.46-24.63ZM154.72-24.63L154.72-21.86 165.67-21.86 165.67 0 168.44 0 168.44-21.86 179.35-21.86 179.35-24.63Z" transform="translate(-0.14000000059604645, 26.34000015258789)"></path></g> <!----> <!----> <!----> <!----> <!----> <!----> <!----></g></g> <g data-gra="path-slogan" fill-rule="" class="tp-slogan" fill="#000000" transform="matrix(1,0,0,1,65.47000312805176,32.34000015258789)" opacity="1"><!----> <!----> <g transform="scale(1, 1)"><g transform="scale(1)"><path d="M1.10-1.72L0.50-1.02C0.85-0.66 1.26-0.38 1.73-0.17C2.20 0.04 2.71 0.14 3.26 0.14C3.68 0.14 4.05 0.09 4.38-0.03C4.71-0.15 4.99-0.31 5.22-0.51C5.45-0.71 5.63-0.95 5.75-1.22C5.88-1.50 5.94-1.79 5.94-2.10C5.94-2.39 5.90-2.64 5.81-2.86C5.73-3.08 5.62-3.27 5.47-3.44C5.33-3.60 5.16-3.75 4.96-3.87C4.76-3.99 4.54-4.10 4.32-4.20L3.20-4.68C3.04-4.74 2.89-4.81 2.74-4.89C2.58-4.97 2.44-5.05 2.32-5.15C2.19-5.25 2.09-5.37 2.01-5.50C1.93-5.63 1.90-5.80 1.90-5.99C1.90-6.35 2.03-6.63 2.30-6.83C2.57-7.04 2.92-7.14 3.36-7.14C3.73-7.14 4.06-7.07 4.35-6.94C4.64-6.81 4.91-6.63 5.15-6.40L5.69-7.04C5.41-7.33 5.07-7.57 4.67-7.75C4.27-7.93 3.83-8.02 3.36-8.02C3-8.02 2.67-7.96 2.37-7.86C2.07-7.76 1.81-7.61 1.59-7.42C1.37-7.23 1.20-7.01 1.07-6.76C0.95-6.50 0.89-6.22 0.89-5.93C0.89-5.64 0.94-5.39 1.03-5.17C1.13-4.95 1.25-4.76 1.40-4.60C1.56-4.44 1.73-4.30 1.92-4.19C2.11-4.08 2.30-3.98 2.48-3.90L3.61-3.41C3.80-3.32 3.97-3.24 4.13-3.16C4.29-3.08 4.43-2.99 4.54-2.89C4.66-2.79 4.75-2.67 4.82-2.53C4.89-2.39 4.92-2.22 4.92-2.02C4.92-1.63 4.78-1.32 4.49-1.09C4.20-0.85 3.80-0.73 3.28-0.73C2.87-0.73 2.47-0.82 2.09-1.00C1.71-1.18 1.38-1.42 1.10-1.72ZM7.45-7.87L7.45-3.25C7.45-2.62 7.52-2.09 7.67-1.66C7.81-1.22 8.01-0.87 8.26-0.61C8.51-0.34 8.81-0.15 9.16-0.03C9.51 0.09 9.88 0.14 10.28 0.14C10.68 0.14 11.06 0.09 11.40-0.03C11.74-0.15 12.04-0.34 12.29-0.61C12.55-0.87 12.74-1.22 12.89-1.66C13.03-2.09 13.10-2.62 13.10-3.25L13.10-7.87L12.14-7.87L12.14-3.23C12.14-2.76 12.10-2.36 12-2.04C11.90-1.72 11.77-1.46 11.60-1.27C11.44-1.08 11.24-0.94 11.02-0.86C10.79-0.77 10.55-0.73 10.28-0.73C10.03-0.73 9.79-0.77 9.56-0.86C9.34-0.94 9.15-1.08 8.98-1.27C8.82-1.46 8.69-1.72 8.59-2.04C8.50-2.36 8.45-2.76 8.45-3.23L8.45-7.87ZM15.23-7.87L15.23 0L16.22 0L16.22-3.12L17.64-3.12C18.07-3.12 18.47-3.17 18.82-3.27C19.18-3.37 19.48-3.52 19.74-3.72C20.00-3.92 20.19-4.17 20.33-4.48C20.47-4.78 20.54-5.14 20.54-5.56C20.54-5.99 20.47-6.35 20.33-6.65C20.19-6.94 20.00-7.18 19.75-7.36C19.49-7.54 19.19-7.67 18.83-7.75C18.47-7.83 18.07-7.87 17.64-7.87ZM17.52-3.94L16.22-3.94L16.22-7.07L17.52-7.07C18.20-7.07 18.71-6.96 19.04-6.74C19.38-6.52 19.55-6.12 19.55-5.56C19.55-5.00 19.38-4.59 19.05-4.33C18.72-4.07 18.21-3.94 17.52-3.94ZM22.14-7.87L22.14 0L23.14 0L23.14-3.12L24.55-3.12C24.98-3.12 25.38-3.17 25.73-3.27C26.09-3.37 26.40-3.52 26.65-3.72C26.91-3.92 27.11-4.17 27.25-4.48C27.39-4.78 27.46-5.14 27.46-5.56C27.46-5.99 27.39-6.35 27.25-6.65C27.11-6.94 26.91-7.18 26.66-7.36C26.41-7.54 26.10-7.67 25.74-7.75C25.38-7.83 24.98-7.87 24.55-7.87ZM24.43-3.94L23.14-3.94L23.14-7.07L24.43-7.07C25.11-7.07 25.62-6.96 25.96-6.74C26.29-6.52 26.46-6.12 26.46-5.56C26.46-5.00 26.29-4.59 25.96-4.33C25.63-4.07 25.12-3.94 24.43-3.94ZM31.96 0.14C32.45 0.14 32.91 0.05 33.32-0.14C33.73-0.34 34.09-0.61 34.39-0.97C34.69-1.32 34.92-1.75 35.08-2.26C35.25-2.77 35.33-3.34 35.33-3.97C35.33-4.60 35.25-5.16 35.08-5.66C34.92-6.16 34.69-6.58 34.39-6.93C34.09-7.28 33.73-7.55 33.32-7.73C32.91-7.92 32.45-8.02 31.96-8.02C31.46-8.02 31.01-7.92 30.59-7.74C30.18-7.56 29.83-7.29 29.53-6.94C29.24-6.59 29.01-6.17 28.84-5.67C28.68-5.17 28.60-4.60 28.60-3.97C28.60-3.34 28.68-2.77 28.84-2.26C29.01-1.75 29.24-1.32 29.53-0.97C29.83-0.61 30.18-0.34 30.59-0.14C31.01 0.05 31.46 0.14 31.96 0.14ZM31.96-0.73C31.60-0.73 31.29-0.81 31.00-0.96C30.72-1.11 30.47-1.33 30.27-1.61C30.07-1.90 29.91-2.24 29.80-2.63C29.68-3.03 29.63-3.48 29.63-3.97C29.63-4.46 29.68-4.90 29.80-5.29C29.91-5.68 30.07-6.02 30.27-6.29C30.47-6.56 30.72-6.77 31.00-6.92C31.29-7.07 31.60-7.14 31.96-7.14C32.31-7.14 32.63-7.07 32.91-6.92C33.19-6.77 33.44-6.56 33.64-6.29C33.85-6.02 34.00-5.68 34.12-5.29C34.23-4.90 34.28-4.46 34.28-3.97C34.28-3.48 34.23-3.03 34.12-2.63C34.00-2.24 33.85-1.90 33.64-1.61C33.44-1.33 33.19-1.11 32.91-0.96C32.63-0.81 32.31-0.73 31.96-0.73ZM38.02-4.14L38.02-7.07L39.34-7.07C39.95-7.07 40.42-6.96 40.75-6.76C41.08-6.55 41.24-6.18 41.24-5.66C41.24-5.15 41.08-4.77 40.75-4.52C40.42-4.27 39.95-4.14 39.34-4.14ZM41.34 0L42.47 0L40.48-3.43C41.01-3.57 41.44-3.82 41.76-4.19C42.08-4.56 42.24-5.05 42.24-5.66C42.24-6.07 42.17-6.42 42.04-6.70C41.90-6.98 41.71-7.20 41.47-7.38C41.22-7.56 40.93-7.68 40.59-7.76C40.25-7.83 39.88-7.87 39.48-7.87L37.02-7.87L37.02 0L38.02 0L38.02-3.32L39.44-3.32ZM45.38-7.03L45.38 0L46.39 0L46.39-7.03L48.77-7.03L48.77-7.87L43.01-7.87L43.01-7.03Z" transform="translate(-0.504, 8.016)"></path></g></g></g></g></g></g><defs v-gra="od"></defs></svg>