<?xml version="1.0" encoding="iso-8859-1"?>
<!-- Uploaded to: SVG Repo, www.svgrepo.com, Generator: SVG Repo Mixer Tools -->
<!DOCTYPE svg PUBLIC "-//W3C//DTD SVG 1.1//EN" "http://www.w3.org/Graphics/SVG/1.1/DTD/svg11.dtd">
<svg fill="#000000" version="1.1" id="Capa_1" xmlns="http://www.w3.org/2000/svg" xmlns:xlink="http://www.w3.org/1999/xlink" 
	 width="800px" height="800px" viewBox="0 0 189.13 189.13"
	 xml:space="preserve">
<g>
	<path d="M145.494,132.363c3.981-4.123,7.471-8.715,10.309-13.652c0.078,0.076,0.113,0.16,0.2,0.233
		c10.488,8.935,23.223-0.487,27.259-10.951c4.694-12.171,2.622-29.056-2.193-40.885c-1.015-2.493-3.225-4.186-6.045-3.432
		c-6.458,1.727-10.662,4.859-13.347,9.251c-0.92-2.907-2.078-5.794-3.56-8.634c-0.611-1.173-1.605-1.716-2.663-1.84
		c0.142-0.692,0.056-1.414-0.349-1.976c-8.929-12.425-37.724-8.05-50.626-7.142c-19.381,1.364-39.073,6.145-58.516,5.767
		c-0.98-0.019-2.114,0.418-2.863,1.156c-1.448-0.361-2.91,1.187-2.224,2.457c-2.278-0.274-3.666,1.326-3.84,3.124
		c-1.485-0.677-3.313-0.317-3.765,1.795c-4.802,22.435,1.543,44.352,14.861,60.292c-8.643-0.474-22.229,5.12-27.844,7.322
		c-9.894,3.881-16.712,14.845-17.053,25.297c-0.821,25.203,48.343,24.892,63.78,25.319c29.598,0.821,76.646,11.101,101.571-9.656
		c9.162-7.63,20.434-21.642,11.629-33.346C173.274,133.637,157.762,132.525,145.494,132.363z M164.11,87.31
		c2.434-5.507,4.494-9.908,9.185-12.479c1.992,7.068,2.54,14.516,2.072,21.835c-0.275,4.326-1.315,9.353-4.125,12.793
		c-3.216,3.939-7.691,1.64-11.874,2.062C162.608,103.854,164.337,95.63,164.11,87.31z M95.877,63.673
		c11.163-1.067,22.365-1.623,33.579-1.364c3.425,0.079,6.88,0.79,10.325,1.47c-12.779,2.091-25.352,5.044-38.531,5.646
		c-12.297,0.562-24.35-0.315-36.324-2.097C75.342,66.521,85.84,64.632,95.877,63.673z M39.458,69.735
		c30.786,12.063,80.749,16.37,111.405,0.7c0.261,17.678,3.621,32.119-6.664,48.911c-8.729,14.251-25.326,21.856-41.489,23.101
		c-15.743,1.211-31.135-4.733-42.641-15.318c-16.352-15.042-18.246-36.897-20.885-57.562C39.286,69.614,39.348,69.692,39.458,69.735
		z M166.087,163.884c-8.726,10.418-24.02,11.906-36.636,12.796c-21.635,1.524-43.788-1.001-65.459-1.613
		c-11.493-0.325-58.19-1.48-47.16-22.028c6.937-12.923,30.426-8.987,36.691-19.356c12.645,12.063,29.853,19.408,49.186,18.729
		c11.438-0.401,22.377-4.405,31.782-10.787c0.773,0.585,1.773,0.952,3.005,0.964C150.046,142.71,183.546,143.038,166.087,163.884z"
		/>
	<path d="M77.863,41.884c-8.498-3.496-8.079-10.974-9.428-18.82C67.214,15.96,63.349,7.211,55.518,6.178
		c-2.439-0.322-4.726,2.816-3.846,5.049c1.546,3.923,4.953,6.208,6.424,10.246c1.422,3.907,1.672,8.221,2.597,12.258
		c1.961,8.555,7.995,12.825,16.399,13.856C80.633,48.023,80.601,43.01,77.863,41.884z"/>
	<path d="M111.765,19.826c1.149-7.47-3.098-15.138-9.123-19.244c-3.084-2.102-6.667,1.941-4.933,4.933
		c2.171,3.748,5.271,6.848,5.771,11.354c0.631,5.687-4.954,10.62-8.937,13.668c-1.558,1.192-2.738,3.445-1.396,5.326
		c2.333,3.27,4.714,6.101,7.801,8.696c2.857,2.401,6.404-1.198,4.062-4.061c-1.419-1.734-2.62-3.407-3.633-5.292
		C106.558,31.32,110.723,26.609,111.765,19.826z"/>
	<path d="M167.852,12.324c-0.51-4.576-7.91-6.572-8.775-1.188c-0.612,3.816-0.378,8.809-3.807,11.399
		c-2.922,2.207-6.889,2.594-10.331,3.484c-7.84,2.026-14.529,5.552-18.165,13.126c-1.134,2.362,1.843,5.087,3.81,2.939
		c6.668-7.286,15.863-6.323,24.616-8.942C164.268,30.428,168.873,21.476,167.852,12.324z"/>
</g>
</svg>