<?xml version="1.0" encoding="iso-8859-1"?>
<!-- Uploaded to: SVG Repo, www.svgrepo.com, Generator: SVG Repo Mixer Tools -->
<!DOCTYPE svg PUBLIC "-//W3C//DTD SVG 1.1//EN" "http://www.w3.org/Graphics/SVG/1.1/DTD/svg11.dtd">
<svg fill="#000000" version="1.1" id="Capa_1" xmlns="http://www.w3.org/2000/svg" xmlns:xlink="http://www.w3.org/1999/xlink" 
	 width="800px" height="800px" viewBox="0 0 536.243 536.242"
	 xml:space="preserve">
<g>
	<path d="M471.053,197.07c-94.2-101.601-284-183.601-423.5-154.2c-9.2,1.8-12.9,9.2-12.2,16.5c-86.9,47.7,9.2,213,45.9,261.3
		c72.2,96.1,200.701,203.2,329.901,173.8c60-13.5,103.399-69.8,120-126.1C550.053,304.77,513.253,242.37,471.053,197.07z
		 M393.353,465.17c-102.199,23.3-210.5-75.9-271.7-145c-61.2-70.4-108.3-155.4-71-243c83.8,151.8,253.4,269.3,414.9,321.899
		c19.601,6.101,28.2-24.5,8.601-31.199C318.753,315.27,166.353,209.97,73.953,72.27c111.4-13.5,238.701,45.9,326.201,107.101
		c50.199,35.5,98.5,87.5,102.8,151.8C505.954,394.17,451.454,451.67,393.353,465.17z"/>
</g>
</svg>