<?xml version="1.0" encoding="iso-8859-1"?>
<!-- Uploaded to: SVG Repo, www.svgrepo.com, Generator: SVG Repo Mixer Tools -->
<!DOCTYPE svg PUBLIC "-//W3C//DTD SVG 1.1//EN" "http://www.w3.org/Graphics/SVG/1.1/DTD/svg11.dtd">
<svg fill="#000000" version="1.1" id="Capa_1" xmlns="http://www.w3.org/2000/svg" xmlns:xlink="http://www.w3.org/1999/xlink" 
	 width="800px" height="800px" viewBox="0 0 191.28 191.28"
	 xml:space="preserve">
<g>
	<path d="M187.615,67.099c-18.261-1.48-49.459,6.528-61.798-10.404c-12.095-16.599-11.648-38.771-25.748-54.728
		c-1.431-1.619-4.768-1.352-5.684,0.733c-3.775,8.592-6.913,17.474-10.203,26.278c-0.349,0.28-0.539,0.734-0.435,1.154
		c-4.551,12.107-9.466,24.029-16.891,34.76c-0.078,0.113-0.09,0.228-0.145,0.343c-9.085,0.722-18.084,2.282-27.295,2.531
		c-11.593,0.314-23.146,0.307-34.413,3.336c-1.645,0.442-2.317,2.088-2.134,3.559c-2.499-0.105-4.163,3.334-1.549,4.879
		c18.271,10.793,34.774,24.068,51.71,36.796c-11.152,22.005-18.989,45.282-21.235,69.982c-0.245,2.687,2.772,4.551,5.145,3.919
		c22.472-5.988,42.625-18.308,60.961-32.378c-0.338,1.532,0.074,3.155,1.763,3.872c17.967,7.616,35.714,20.654,55.214,23.914
		c2.448,0.409,5.635-1.097,5.345-4.07c-1.978-20.264-5.921-42.021-13.185-61.086c-0.628-1.648-1.854-2.45-3.128-2.62
		c0.06-0.02,0.116-0.007,0.176-0.032c10.021-4.178,18.597-12.24,26.264-19.725c2.162-2.112,5.022-4.761,7.809-7.7
		c1.191,0.026,2.047-1.089,2.023-2.219c3.756-4.266,7.002-8.976,7.64-13.483C192.534,74.763,192.397,67.486,187.615,67.099z
		 M175.692,79.74c-0.685,0.883-1.439,1.709-2.151,2.57c-1.506-0.967-3.012-1.932-4.364-3.02c-1.661-1.337-3.269-2.747-4.863-4.17
		c5.097-0.162,10.153-0.429,14.977-0.508C178.044,76.296,176.942,78.127,175.692,79.74z M98.394,11.854
		c2.96,4.768,5.091,10.342,6.992,16.138c-3.47-2.358-7.003-4.652-10.442-7.023C96.08,17.902,97.216,14.849,98.394,11.854z
		 M93.686,24.335c4.334,3.429,8.821,7.017,13.615,9.701c0.883,2.867,1.758,5.742,2.69,8.561c-2.596-1.617-5.562-2.931-7.913-4.324
		c-3.722-2.206-7.367-4.497-11.131-6.593C91.879,29.233,92.78,26.783,93.686,24.335z M90,34.176c3.012,1.816,6,3.671,8.946,5.599
		c3.976,2.603,8.378,7.189,13.084,8.511c2.419,6.259,5.392,11.987,9.781,16.351c-11.32-8.491-23.102-16.246-35.12-22.399
		C87.853,39.583,88.942,36.887,90,34.176z M71.577,70.448c23.832,16.389,45.888,34.518,68.243,52.877
		c0.618,3.55,1.342,7.072,2.118,10.577c-9.698-11.462-24.689-20.669-36.351-29.763c-13.508-10.533-27.16-20.958-41.229-30.744
		C66.922,72.723,69.358,71.772,71.577,70.448z M40.614,180.614c0.456-3.533,1.069-7.028,1.753-10.505
		c1.24,1.998,2.602,3.923,4.054,5.783c0.48,0.614,1.044,1.327,1.674,2.038C45.63,178.9,43.138,179.799,40.614,180.614z
		 M53.065,175.822c-1.179-1.04-2.403-2.055-3.378-3.195c-2.282-2.673-4.199-5.663-6.027-8.678c0.398-1.687,0.836-3.361,1.284-5.032
		c2.583,2.276,5.165,4.557,7.762,6.812c2.295,1.992,5.412,5.317,8.622,6.132C58.608,173.253,55.862,174.595,53.065,175.822z
		 M64.245,170.357c-0.02-0.213-0.051-0.427-0.186-0.623c-2.125-3.104-6.864-5.05-9.844-7.362c-2.81-2.181-5.502-4.573-8.352-6.724
		c1.086-3.772,2.322-7.499,3.639-11.199c3.408,2.627,6.718,5.37,9.935,8.244c3.693,3.299,7.49,7.542,11.959,9.738
		c0.792,0.39,1.495,0.176,1.932-0.294c0.641,0.678,1.356,1.315,2.168,1.58C71.812,166.045,68.079,168.297,64.245,170.357z
		 M77.915,162.179c-0.084-0.203-0.209-0.385-0.415-0.495c-0.467-0.249-0.791-0.352-1.323-0.342
		c-0.622,0.011-1.182-0.725-1.597-1.099c-0.369-0.332-0.782-0.36-1.129-0.228c-0.031-0.047-0.044-0.098-0.081-0.144
		c-3.308-4.201-8.375-7.646-12.507-11.041c-3.271-2.69-6.66-5.221-10.135-7.635c0.987-2.63,2.106-5.214,3.191-7.81
		c5.658,5.315,11.327,10.617,16.916,16.005c3.229,3.112,6.485,6.197,9.7,9.324c0.324,0.315,0.649,0.669,0.975,1.013
		C80.309,160.542,79.131,161.387,77.915,162.179z M86.167,156.553c-3.727-3.919-9.149-7.529-12.22-10.274
		c-6.125-5.473-12.368-10.847-18.741-16.043c1.227-2.812,2.523-5.599,3.859-8.367c10.927,10.216,21.698,20.707,33.439,29.982
		C90.412,153.438,88.316,155.025,86.167,156.553z M102.624,154.707c-0.386-0.143-0.747-0.147-1.106-0.151
		c1.097-2.469-1.55-5.302-4.43-5.175c-12.695-9.659-24.146-20.724-36.29-31.03c0.199-0.394,0.382-0.794,0.584-1.187
		c1.059-2.052,0.391-4.063-1.41-5.375C43.053,99.467,26.668,86.438,7.965,76.947c4.268-0.509,8.534-0.819,12.802-1.063
		c40.475,30.577,77.293,66,118.237,95.956C126.699,166.559,114.869,159.226,102.624,154.707z M150.638,173.271
		c-42.208-32.427-81.971-68.206-126.434-97.577c4.433-0.2,8.877-0.304,13.327-0.386c15.744,14.746,33.533,27.58,50.332,41.033
		c19.979,16,39.048,32.935,58.312,49.767c1.07,0.935,2.304,0.856,3.24,0.299C149.86,168.684,150.276,170.97,150.638,173.271z
		 M148.181,160.458c-30.943-31.204-68.316-61.106-105.515-85.242c0.343-0.005,0.684-0.013,1.027-0.018
		c4.765-0.068,10.048-0.06,15.152-0.726c15.94,11.87,31.48,24.192,46.805,36.845c11.033,9.107,22.211,21.428,34.933,28.034
		c1.018,0.529,1.928,0.342,2.562-0.185C144.816,146.267,146.611,153.333,148.181,160.458z M141.406,113.235
		c-1.748,1.352-0.501,4.226,1.373,4.672c-0.239,0.041-0.452,0.163-0.68,0.246c-19.998-19.63-44.735-35.504-68.801-49.892
		c0.144-0.858-0.051-1.763-0.586-2.415c2.321-2.726,4.34-5.67,6.238-8.699c24.301,15.147,44.388,36.145,68.729,51.028
		C145.63,109.895,143.544,111.582,141.406,113.235z M151.936,104.476c-23.491-16.619-45.606-36.874-71.359-49.946
		c1.838-3.172,3.494-6.471,5.035-9.84c24.795,16.923,45.325,40.051,70.621,55.823C154.81,101.843,153.393,103.183,151.936,104.476z
		 M164.572,92.336c-1.469,1.533-2.973,3.002-4.475,4.476c-10.076-9.188-20.927-18.693-32.31-27.602
		c3.773,2.19,7.919,3.613,12.282,4.533c0.019,0.051,0.017,0.101,0.044,0.15c0.137,0.248,0.333,0.483,0.557,0.708
		c0.105,0.178,0.4,0.428,0.662,0.71c0.841,0.907,1.879,1.666,2.841,2.438c2.773,2.224,5.531,4.468,8.306,6.691
		c2.174,1.743,9.244,9.384,12.406,7.13c0.804-0.572,1.354-1.743,0.699-2.665c-1.164-1.642-2.619-2.309-4.314-3.416
		c-2.911-1.899-5.764-3.89-8.62-5.87c-2.403-1.665-4.777-3.413-7.236-5.002c4.633,0.559,9.438,0.668,14.253,0.606
		c2.188,2.334,4.408,4.634,6.744,6.832c1.283,1.207,2.668,2.555,4.136,3.832C168.6,88.079,166.599,90.224,164.572,92.336z"/>
</g>
</svg>