<?xml version="1.0" encoding="iso-8859-1"?>
<!-- Uploaded to: SVG Repo, www.svgrepo.com, Generator: SVG Repo Mixer Tools -->
<!DOCTYPE svg PUBLIC "-//W3C//DTD SVG 1.1//EN" "http://www.w3.org/Graphics/SVG/1.1/DTD/svg11.dtd">
<svg fill="#000000" version="1.1" id="Capa_1" xmlns="http://www.w3.org/2000/svg" xmlns:xlink="http://www.w3.org/1999/xlink" 
	 width="800px" height="800px" viewBox="0 0 412.985 412.985"
	 xml:space="preserve">
<g>
	<path d="M375.895,0.059c-34.885,4.284-67.32,19.584-102.204,20.808c-3.672,0-6.732,3.06-6.732,6.732c0,1.224,0,2.448,0,4.284
		c0,2.448,1.225,4.896,3.061,5.508c11.016,5.508,20.808,12.852,31.212,19.584c0,0-0.612,0-1.225,0.612
		c-35.496,20.808-69.768,45.288-100.98,74.052c-34.884-35.496-67.932-73.44-109.548-100.98c-3.06-1.836-6.732-0.612-8.568,2.448
		c-15.3,22.032-31.212,42.84-48.348,64.26c-3.06,3.672-1.836,8.568,3.06,10.404c44.064,17.136,82.62,45.9,127.296,59.976
		c-14.688,15.912-28.764,32.436-41.616,49.573c-37.332,50.796-67.932,132.191-5.508,177.479
		c52.02,37.332,120.564,12.24,160.344-30.6c52.021-55.692,37.944-129.744-10.403-181.765c-1.836-1.836-4.284-2.448-6.12-1.224
		c-1.836-1.836-3.672-3.06-5.508-4.896c-3.672-2.448-6.732-5.508-10.404-7.956c33.048-24.48,67.932-48.348,93.636-80.172
		c0,0.612,0.612,0.612,1.225,1.224c10.403,8.568,22.644,14.076,33.659,21.42c4.284,2.448,9.792-0.612,9.792-5.508
		c0-32.436,0-65.484,0-97.92C382.626,3.73,379.566-0.553,375.895,0.059z M47.25,97.979C61.326,80.23,74.79,62.483,87.642,44.123
		c38.556,26.928,69.156,62.424,102.204,95.472c-7.344,6.732-14.076,13.464-20.808,20.808
		C128.034,139.595,88.866,115.727,47.25,97.979z M347.742,79.619c-3.672-3.06-7.956-1.224-10.404,1.836
		c-1.224-1.224-3.672-1.836-5.508,0c-52.02,52.02-118.728,86.904-168.912,140.76c-26.928,28.765-64.872,94.86-18.36,126.072
		c35.496,23.868,82.62-3.06,105.876-31.824c35.495-44.063,9.18-94.248-34.885-118.728c-7.344-3.672-12.852,6.12-6.12,10.404
		c41.616,28.765,61.812,68.545,22.645,108.937c-24.48,25.092-78.948,43.452-93.636-1.224
		c-17.136-52.021,49.572-102.816,83.232-130.969c4.284-3.672,8.568-6.732,12.853-9.792c4.896,2.448,9.792,4.284,14.688,7.344
		c1.836,1.224,4.284,2.448,6.12,4.284c0,1.224,0.612,3.06,1.836,4.284c48.348,52.021,55.08,119.953,3.061,171.973
		c-39.169,38.556-106.488,53.855-147.493,9.792c-50.796-54.469,6.12-133.416,43.452-177.481
		c42.84-50.184,94.86-94.86,148.104-132.804c1.224-0.612,1.836-2.448,1.224-3.672c2.448,1.836,4.896,3.06,7.345,4.896
		c4.283,2.448,9.18-3.672,5.508-6.732s-22.032-15.912-31.212-23.868c28.151-3.06,54.468-12.852,82.62-18.36
		c0,26.316,0,52.02,0,78.336C361.818,89.411,353.862,85.126,347.742,79.619z"/>
</g>
</svg>