<?xml version="1.0" encoding="iso-8859-1"?>
<!-- Uploaded to: SVG Repo, www.svgrepo.com, Generator: SVG Repo Mixer Tools -->
<!DOCTYPE svg PUBLIC "-//W3C//DTD SVG 1.1//EN" "http://www.w3.org/Graphics/SVG/1.1/DTD/svg11.dtd">
<svg fill="#000000" version="1.1" id="Capa_1" xmlns="http://www.w3.org/2000/svg" xmlns:xlink="http://www.w3.org/1999/xlink" 
	 width="800px" height="800px" viewBox="0 0 47.384 47.384"
	 xml:space="preserve">
<g>
	<g>
		<path d="M3.325,20.569c-5.515,0-1.02,4.897,0.488,6.555c5.003,5.495,10.007,10.99,15.01,16.485
			c1.888,2.075,4.149,5.653,6.953,2.574c6.249-6.863,12.499-13.726,18.748-20.589c0.784-0.861,3.824-3.928,1.079-4.745
			c-3.143-0.936-7.013-0.336-10.315-0.289C34.317,19.329,38.446,5,38.873,3.098c0.972-4.328-7.297-2.858-9.487-2.858
			c-6.291,0-12.582,0-18.872,0c-4.823,0-0.619,10.447-0.174,12.434c0.587,2.619,1.174,5.238,1.761,7.857
			C12.064,20.372,4.484,20.569,3.325,20.569z M11.139,32.361c2.075-3.605,4.18-7.19,6.352-10.728
			c2.476-4.034,5.091-7.984,7.597-11.994c0.292-0.468,0.294-0.469,0.006,0.002c-4.653,7.576-9.276,15.17-13.933,22.744
			C11.154,32.379,11.146,32.37,11.139,32.361z M15.264,36.893c0.001-0.003,0.002-0.005,0.004-0.008
			c4.074-6.161,8.126-12.337,12.21-18.493c0.306-0.461,0.377-0.423,0.15,0.081c-0.471,1.052-0.964,2.092-1.482,3.119
			c-3.229,5.465-6.563,10.863-10.169,16.085C15.74,37.416,15.501,37.153,15.264,36.893z M27.13,40.604
			c-0.35,0.965-0.701,1.93-1.054,2.894c-0.824,1.021-2.281,2.766-2.721,2.282c-0.123-0.135-0.246-0.271-0.369-0.405
			c1.354-1.591,2.657-3.229,3.895-4.904C27.209,40.027,27.319,40.086,27.13,40.604z M25.671,39.489
			c-0.319,0.451-0.377,0.416-0.122-0.073c1.36-2.613,2.737-5.22,4.16-7.805c0.428-0.774,0.856-1.551,1.284-2.325
			c0.269-0.483,0.339-0.452,0.156,0.069c-0.361,1.032-0.729,2.062-1.095,3.091c-0.186,0.521-0.573,1.323-0.869,1.789
			C28.072,35.99,26.903,37.754,25.671,39.489z M43.271,22.062c0.596,0,0.913,0.14,1.045,0.366c-0.147,0.132-0.277,0.305-0.365,0.49
			c-0.202,0.426-0.403,0.851-0.603,1.277c-0.115,0.245-0.226,0.494-0.34,0.739c-0.58,0.636-1.174,1.195-1.396,1.439
			c-1.847,2.026-3.692,4.055-5.539,6.083c1.536-3.192,3.082-6.38,4.656-9.553c0.198-0.4,0.062-0.728-0.284-0.842
			C41.387,22.062,42.328,22.062,43.271,22.062z M35.523,23.176c0.031-0.079,0.062-0.158,0.093-0.237
			c0.166-0.419,0.123-0.76-0.069-0.876c0.476,0,0.949,0,1.426,0c-0.465,0.114-0.934,0.435-1.144,0.828
			c-0.061,0.114-0.122,0.229-0.184,0.341C35.383,23.718,35.322,23.689,35.523,23.176z M38.01,22.886
			c0.213-0.391,0.092-0.71-0.248-0.824c0.652,0,1.307,0,1.96,0c-0.462,0.115-0.923,0.441-1.121,0.841
			c-2.389,4.809-4.714,9.651-7.03,14.498c-0.632,0.694-1.263,1.389-1.894,2.081c0.669-1.848,1.34-3.694,2.004-5.545
			c0.187-0.52,0.581-1.317,0.878-1.784C34.482,29.132,36.287,26.032,38.01,22.886z M34.216,15.229
			c-0.344,1.531-1.646,4.317-0.881,5.887c-4.288,7.218-8.469,14.5-12.56,21.831c-0.768-0.845-1.538-1.688-2.307-2.533
			c-0.429-0.472-0.857-0.942-1.286-1.413c4.182-5.711,8.172-11.568,11.321-17.849c2.395-4.058,4.748-8.143,7.123-12.214
			C35.157,11.036,34.688,13.132,34.216,15.229z M31.775,1.733c1.062,0,3.649-0.498,4.713,0.214c-0.108,0.147-0.244,0.34-0.393,0.557
			c-0.995,1.447-1.986,2.898-2.976,4.351c-0.311,0.457-0.872,0.892-1.235,1.032c-0.299,0.114-0.543,0.241-0.622,0.326
			c-0.142,0.151-0.275,0.308-0.408,0.465c-0.222,0.261-0.198,0.072,0.054-0.42c0.968-1.893,1.932-3.79,2.894-5.686
			c0.25-0.493,0.005-0.892-0.549-0.892h-0.116c-0.554,0-1.202,0.399-1.452,0.892c-3.957,7.806-7.942,15.599-12.179,23.246
			c-1.025,1.83-2.049,3.651-3.106,5.427c-0.829,1.396-1.64,2.803-2.444,4.212c-0.514-0.564-1.027-1.128-1.541-1.692
			C18.818,23.365,25.141,12.914,31.57,2.53c0.232-0.375,0.134-0.684-0.192-0.796C31.511,1.733,31.644,1.733,31.775,1.733z
			 M30.673,1.733c-0.467,0.113-0.947,0.421-1.181,0.796c-0.818,1.316-1.639,2.631-2.453,3.949c-0.291,0.47-0.293,0.468-0.009-0.005
			c0.774-1.293,1.528-2.598,2.256-3.916c0.215-0.39,0.093-0.71-0.247-0.824C29.584,1.733,30.128,1.733,30.673,1.733z M25.548,1.733
			c-0.47,0.11-0.967,0.397-1.229,0.742c-1.106,1.455-2.203,2.915-3.285,4.389c-0.326,0.445-0.385,0.41-0.134-0.081
			c0.71-1.395,1.405-2.794,2.085-4.201c0.195-0.403,0.054-0.732-0.297-0.848C23.641,1.733,24.595,1.733,25.548,1.733z M15.121,1.733
			c-0.079,0.013-0.139,0.028-0.149,0.044c-0.036,0.054-0.04,0.054-0.011,0c0.009-0.016-0.033-0.031-0.098-0.044
			C14.95,1.733,15.036,1.733,15.121,1.733z M10.267,3.842c0.279-0.441,0.559-0.883,0.843-1.323c0.238-0.37,0.253-0.674,0.076-0.786
			c0.794,0,1.588,0,2.381,0c-0.465,0.114-0.937,0.433-1.152,0.821c-0.562,1.01-1.125,2.019-1.691,3.027
			C10.56,5.049,10.378,4.43,10.267,3.842z M12.017,10.038c1.483-2.536,2.994-5.051,4.575-7.517c0.237-0.37,0.146-0.675-0.175-0.787
			c1.375,0,2.751,0,4.126,0c0.473,0,0.944,0,1.416,0c-0.46,0.115-0.916,0.445-1.11,0.849c-2.249,4.683-4.685,9.276-7.205,13.83
			C13.231,14.305,12.574,11.938,12.017,10.038z M12.784,21.845c-0.133,0.094-0.289,0.163-0.484,0.163c0,0-0.04,0-0.1,0
			C12.399,21.963,12.592,21.906,12.784,21.845z M12.896,21.806c0.162-0.055,0.33-0.099,0.485-0.167
			c0.426-0.19,0.623-0.774,0.66-1.609c3.914-5.995,8.041-11.851,12.363-17.554c0.262-0.345,0.201-0.632-0.101-0.742
			c0.674,0,1.347,0,2.021,0c-0.463,0.114-0.931,0.435-1.144,0.827c-4.211,7.743-9.375,14.983-13.891,22.548
			c-1.157,1.939-2.298,3.893-3.432,5.849c-0.489-0.539-0.979-1.077-1.47-1.615c0.985-1.708,1.972-3.416,2.952-5.125
			C11.851,23.407,12.379,22.61,12.896,21.806z M10.008,22.878c-0.265,0.465-0.529,0.931-0.797,1.395
			c-0.742,1.182-1.468,2.373-2.19,3.565c-1.026-1.128-2.054-2.256-3.081-3.385c-0.029-0.032-0.053-0.061-0.08-0.092
			c0.283-0.493,0.566-0.988,0.848-1.485c0.204-0.36,0.127-0.669-0.157-0.801c0.193-0.009,0.398-0.015,0.628-0.015
			c1.688,0,3.694,0.27,5.552,0.149C10.435,22.371,10.163,22.604,10.008,22.878z"/>
	</g>
</g>
</svg>